<mxfile host="app.diagrams.net" agent="Mozilla/5.0 (Macintosh; Intel Mac OS X 10_15_7) AppleWebKit/537.36 (KHTML, like Gecko) Chrome/133.0.0.0 Safari/537.36" version="26.0.10" pages="5">
  <diagram name="Problem" id="P0rNSONEeaxtKrXE7Jqg">
    <mxGraphModel dx="1306" dy="825" grid="1" gridSize="10" guides="1" tooltips="1" connect="1" arrows="1" fold="1" page="1" pageScale="1" pageWidth="1169" pageHeight="827" math="0" shadow="0">
      <root>
        <mxCell id="0" />
        <mxCell id="1" parent="0" />
        <mxCell id="vBPRODDeX6TSBj6M_eWh-3" style="edgeStyle=orthogonalEdgeStyle;rounded=0;orthogonalLoop=1;jettySize=auto;html=1;entryX=0;entryY=0.5;entryDx=0;entryDy=0;flowAnimation=1;" parent="1" source="vBPRODDeX6TSBj6M_eWh-6" edge="1">
          <mxGeometry relative="1" as="geometry">
            <mxPoint x="557" y="414" as="targetPoint" />
          </mxGeometry>
        </mxCell>
        <mxCell id="vBPRODDeX6TSBj6M_eWh-1" value="Client" style="image;html=1;image=img/lib/clip_art/computers/iMac_128x128.png" parent="1" vertex="1">
          <mxGeometry x="307" y="374" width="80" height="80" as="geometry" />
        </mxCell>
        <mxCell id="vBPRODDeX6TSBj6M_eWh-9" style="edgeStyle=orthogonalEdgeStyle;rounded=0;orthogonalLoop=1;jettySize=auto;html=1;entryX=0;entryY=0.5;entryDx=0;entryDy=0;flowAnimation=1;" parent="1" source="vBPRODDeX6TSBj6M_eWh-10" target="vBPRODDeX6TSBj6M_eWh-8" edge="1">
          <mxGeometry relative="1" as="geometry" />
        </mxCell>
        <mxCell id="vBPRODDeX6TSBj6M_eWh-7" value="" style="edgeStyle=orthogonalEdgeStyle;rounded=0;orthogonalLoop=1;jettySize=auto;html=1;entryX=0;entryY=0.5;entryDx=0;entryDy=0;flowAnimation=1;" parent="1" source="vBPRODDeX6TSBj6M_eWh-1" target="vBPRODDeX6TSBj6M_eWh-6" edge="1">
          <mxGeometry relative="1" as="geometry">
            <mxPoint x="387" y="414" as="sourcePoint" />
            <mxPoint x="507" y="414" as="targetPoint" />
          </mxGeometry>
        </mxCell>
        <mxCell id="vBPRODDeX6TSBj6M_eWh-6" value="" style="verticalLabelPosition=bottom;html=1;verticalAlign=top;strokeWidth=1;align=center;outlineConnect=0;dashed=0;outlineConnect=0;shape=mxgraph.aws3d.image;strokeColor=none;fillColor=#777777;aspect=fixed;" parent="1" vertex="1">
          <mxGeometry x="450" y="388" width="30.23" height="52" as="geometry" />
        </mxCell>
        <mxCell id="vBPRODDeX6TSBj6M_eWh-8" value="Storage" style="image;html=1;image=img/lib/clip_art/computers/Harddrive_128x128.png" parent="1" vertex="1">
          <mxGeometry x="782" y="374" width="80" height="80" as="geometry" />
        </mxCell>
        <mxCell id="vBPRODDeX6TSBj6M_eWh-11" value="" style="edgeStyle=orthogonalEdgeStyle;rounded=0;orthogonalLoop=1;jettySize=auto;html=1;entryX=0;entryY=0.5;entryDx=0;entryDy=0;flowAnimation=1;" parent="1" target="vBPRODDeX6TSBj6M_eWh-10" edge="1">
          <mxGeometry relative="1" as="geometry">
            <mxPoint x="620" y="414" as="sourcePoint" />
            <mxPoint x="782" y="414" as="targetPoint" />
          </mxGeometry>
        </mxCell>
        <mxCell id="vBPRODDeX6TSBj6M_eWh-10" value="" style="verticalLabelPosition=bottom;html=1;verticalAlign=top;strokeWidth=1;align=center;outlineConnect=0;dashed=0;outlineConnect=0;shape=mxgraph.aws3d.image;strokeColor=none;fillColor=#777777;aspect=fixed;" parent="1" vertex="1">
          <mxGeometry x="690" y="388" width="30.23" height="52" as="geometry" />
        </mxCell>
        <mxCell id="fUBKV3H9uoQNqTbPFIY8-1" value="API" style="sketch=0;points=[[0,0,0],[0.25,0,0],[0.5,0,0],[0.75,0,0],[1,0,0],[0,1,0],[0.25,1,0],[0.5,1,0],[0.75,1,0],[1,1,0],[0,0.25,0],[0,0.5,0],[0,0.75,0],[1,0.25,0],[1,0.5,0],[1,0.75,0]];outlineConnect=0;fontColor=#232F3E;fillColor=#E7157B;strokeColor=#ffffff;dashed=0;verticalLabelPosition=bottom;verticalAlign=top;align=center;html=1;fontSize=12;fontStyle=0;aspect=fixed;shape=mxgraph.aws4.resourceIcon;resIcon=mxgraph.aws4.api_gateway;" parent="1" vertex="1">
          <mxGeometry x="560" y="389" width="50" height="50" as="geometry" />
        </mxCell>
      </root>
    </mxGraphModel>
  </diagram>
  <diagram name="Solution-1" id="72ppi86PY4V8Xza2J7hb">
    <mxGraphModel dx="1306" dy="825" grid="1" gridSize="10" guides="1" tooltips="1" connect="1" arrows="1" fold="1" page="1" pageScale="1" pageWidth="1169" pageHeight="827" math="0" shadow="0">
      <root>
        <mxCell id="O2NYZbeeu-_QF4TCAPES-0" />
        <mxCell id="O2NYZbeeu-_QF4TCAPES-1" parent="O2NYZbeeu-_QF4TCAPES-0" />
        <mxCell id="mWlzkhwqvpsy-X-Dac72-10" style="edgeStyle=orthogonalEdgeStyle;rounded=0;orthogonalLoop=1;jettySize=auto;html=1;flowAnimation=1;" edge="1" parent="O2NYZbeeu-_QF4TCAPES-1" source="O2NYZbeeu-_QF4TCAPES-3" target="O2NYZbeeu-_QF4TCAPES-7">
          <mxGeometry relative="1" as="geometry">
            <Array as="points">
              <mxPoint x="420" y="410" />
              <mxPoint x="420" y="410" />
            </Array>
          </mxGeometry>
        </mxCell>
        <mxCell id="O2NYZbeeu-_QF4TCAPES-3" value="Client" style="image;html=1;image=img/lib/clip_art/computers/iMac_128x128.png" vertex="1" parent="O2NYZbeeu-_QF4TCAPES-1">
          <mxGeometry x="307" y="374" width="80" height="80" as="geometry" />
        </mxCell>
        <mxCell id="mWlzkhwqvpsy-X-Dac72-5" style="edgeStyle=orthogonalEdgeStyle;rounded=0;orthogonalLoop=1;jettySize=auto;html=1;flowAnimation=1;" edge="1" parent="O2NYZbeeu-_QF4TCAPES-1" target="O2NYZbeeu-_QF4TCAPES-7">
          <mxGeometry relative="1" as="geometry">
            <mxPoint x="557" y="420" as="sourcePoint" />
            <Array as="points">
              <mxPoint x="520" y="420" />
              <mxPoint x="520" y="420" />
            </Array>
          </mxGeometry>
        </mxCell>
        <mxCell id="mWlzkhwqvpsy-X-Dac72-11" style="edgeStyle=orthogonalEdgeStyle;rounded=0;orthogonalLoop=1;jettySize=auto;html=1;flowAnimation=1;" edge="1" parent="O2NYZbeeu-_QF4TCAPES-1" target="O2NYZbeeu-_QF4TCAPES-10">
          <mxGeometry relative="1" as="geometry">
            <mxPoint x="620" y="410" as="sourcePoint" />
            <Array as="points">
              <mxPoint x="670" y="410" />
              <mxPoint x="670" y="410" />
            </Array>
          </mxGeometry>
        </mxCell>
        <mxCell id="mWlzkhwqvpsy-X-Dac72-6" style="edgeStyle=orthogonalEdgeStyle;rounded=0;orthogonalLoop=1;jettySize=auto;html=1;flowAnimation=1;" edge="1" parent="O2NYZbeeu-_QF4TCAPES-1" source="O2NYZbeeu-_QF4TCAPES-7" target="O2NYZbeeu-_QF4TCAPES-3">
          <mxGeometry relative="1" as="geometry">
            <Array as="points">
              <mxPoint x="420" y="420" />
              <mxPoint x="420" y="420" />
            </Array>
          </mxGeometry>
        </mxCell>
        <mxCell id="mWlzkhwqvpsy-X-Dac72-9" style="edgeStyle=orthogonalEdgeStyle;rounded=0;orthogonalLoop=1;jettySize=auto;html=1;flowAnimation=1;" edge="1" parent="O2NYZbeeu-_QF4TCAPES-1" source="O2NYZbeeu-_QF4TCAPES-7">
          <mxGeometry relative="1" as="geometry">
            <mxPoint x="557" y="410" as="targetPoint" />
            <Array as="points">
              <mxPoint x="520" y="410" />
              <mxPoint x="520" y="410" />
            </Array>
          </mxGeometry>
        </mxCell>
        <mxCell id="O2NYZbeeu-_QF4TCAPES-7" value="" style="verticalLabelPosition=bottom;html=1;verticalAlign=top;strokeWidth=1;align=center;outlineConnect=0;dashed=0;outlineConnect=0;shape=mxgraph.aws3d.image;strokeColor=none;fillColor=#777777;aspect=fixed;" vertex="1" parent="O2NYZbeeu-_QF4TCAPES-1">
          <mxGeometry x="450" y="388" width="30.23" height="52" as="geometry" />
        </mxCell>
        <mxCell id="mWlzkhwqvpsy-X-Dac72-4" style="edgeStyle=orthogonalEdgeStyle;rounded=0;orthogonalLoop=1;jettySize=auto;html=1;flowAnimation=1;" edge="1" parent="O2NYZbeeu-_QF4TCAPES-1" source="O2NYZbeeu-_QF4TCAPES-10">
          <mxGeometry relative="1" as="geometry">
            <mxPoint x="620" y="420" as="targetPoint" />
            <Array as="points">
              <mxPoint x="670" y="420" />
              <mxPoint x="670" y="420" />
            </Array>
          </mxGeometry>
        </mxCell>
        <mxCell id="mWlzkhwqvpsy-X-Dac72-12" style="edgeStyle=orthogonalEdgeStyle;rounded=0;orthogonalLoop=1;jettySize=auto;html=1;flowAnimation=1;" edge="1" parent="O2NYZbeeu-_QF4TCAPES-1" source="O2NYZbeeu-_QF4TCAPES-10">
          <mxGeometry relative="1" as="geometry">
            <mxPoint x="780" y="410" as="targetPoint" />
            <Array as="points">
              <mxPoint x="750" y="410" />
              <mxPoint x="750" y="410" />
            </Array>
          </mxGeometry>
        </mxCell>
        <mxCell id="O2NYZbeeu-_QF4TCAPES-10" value="" style="verticalLabelPosition=bottom;html=1;verticalAlign=top;strokeWidth=1;align=center;outlineConnect=0;dashed=0;outlineConnect=0;shape=mxgraph.aws3d.image;strokeColor=none;fillColor=#777777;aspect=fixed;" vertex="1" parent="O2NYZbeeu-_QF4TCAPES-1">
          <mxGeometry x="680" y="388" width="30.23" height="52" as="geometry" />
        </mxCell>
        <mxCell id="mWlzkhwqvpsy-X-Dac72-3" style="edgeStyle=orthogonalEdgeStyle;rounded=0;orthogonalLoop=1;jettySize=auto;html=1;flowAnimation=1;" edge="1" parent="O2NYZbeeu-_QF4TCAPES-1" target="O2NYZbeeu-_QF4TCAPES-10">
          <mxGeometry relative="1" as="geometry">
            <mxPoint x="780" y="420" as="sourcePoint" />
            <Array as="points">
              <mxPoint x="750" y="420" />
              <mxPoint x="750" y="420" />
            </Array>
          </mxGeometry>
        </mxCell>
        <mxCell id="Ixc8FI6wyPdwdD22UWWJ-2" value="" style="edgeStyle=orthogonalEdgeStyle;rounded=0;orthogonalLoop=1;jettySize=auto;html=1;flowAnimation=1;" edge="1" parent="O2NYZbeeu-_QF4TCAPES-1" source="d-24OFHpohl1RcK-2ual-0" target="Ixc8FI6wyPdwdD22UWWJ-1">
          <mxGeometry relative="1" as="geometry">
            <Array as="points">
              <mxPoint x="870" y="410" />
              <mxPoint x="870" y="410" />
            </Array>
          </mxGeometry>
        </mxCell>
        <mxCell id="d-24OFHpohl1RcK-2ual-0" value="Lambda" style="sketch=0;points=[[0,0,0],[0.25,0,0],[0.5,0,0],[0.75,0,0],[1,0,0],[0,1,0],[0.25,1,0],[0.5,1,0],[0.75,1,0],[1,1,0],[0,0.25,0],[0,0.5,0],[0,0.75,0],[1,0.25,0],[1,0.5,0],[1,0.75,0]];outlineConnect=0;fontColor=#232F3E;fillColor=#ED7100;strokeColor=#ffffff;dashed=0;verticalLabelPosition=bottom;verticalAlign=top;align=center;html=1;fontSize=12;fontStyle=0;aspect=fixed;shape=mxgraph.aws4.resourceIcon;resIcon=mxgraph.aws4.lambda;" vertex="1" parent="O2NYZbeeu-_QF4TCAPES-1">
          <mxGeometry x="780" y="388" width="50" height="50" as="geometry" />
        </mxCell>
        <mxCell id="Ixc8FI6wyPdwdD22UWWJ-0" value="API" style="sketch=0;points=[[0,0,0],[0.25,0,0],[0.5,0,0],[0.75,0,0],[1,0,0],[0,1,0],[0.25,1,0],[0.5,1,0],[0.75,1,0],[1,1,0],[0,0.25,0],[0,0.5,0],[0,0.75,0],[1,0.25,0],[1,0.5,0],[1,0.75,0]];outlineConnect=0;fontColor=#232F3E;fillColor=#E7157B;strokeColor=#ffffff;dashed=0;verticalLabelPosition=bottom;verticalAlign=top;align=center;html=1;fontSize=12;fontStyle=0;aspect=fixed;shape=mxgraph.aws4.resourceIcon;resIcon=mxgraph.aws4.api_gateway;" vertex="1" parent="O2NYZbeeu-_QF4TCAPES-1">
          <mxGeometry x="559.5" y="389" width="50" height="50" as="geometry" />
        </mxCell>
        <mxCell id="Ixc8FI6wyPdwdD22UWWJ-3" value="" style="edgeStyle=orthogonalEdgeStyle;rounded=0;orthogonalLoop=1;jettySize=auto;html=1;flowAnimation=1;" edge="1" parent="O2NYZbeeu-_QF4TCAPES-1" source="Ixc8FI6wyPdwdD22UWWJ-1" target="d-24OFHpohl1RcK-2ual-0">
          <mxGeometry relative="1" as="geometry">
            <Array as="points">
              <mxPoint x="870" y="420" />
              <mxPoint x="870" y="420" />
            </Array>
          </mxGeometry>
        </mxCell>
        <mxCell id="Ixc8FI6wyPdwdD22UWWJ-1" value="DB" style="image;html=1;image=img/lib/clip_art/computers/Database_128x128.png" vertex="1" parent="O2NYZbeeu-_QF4TCAPES-1">
          <mxGeometry x="900" y="373" width="50" height="80" as="geometry" />
        </mxCell>
      </root>
    </mxGraphModel>
  </diagram>
  <diagram name="Solution-2" id="lGptv-74Gkom0qWH-vt3">
    <mxGraphModel dx="1306" dy="825" grid="1" gridSize="10" guides="1" tooltips="1" connect="1" arrows="1" fold="1" page="1" pageScale="1" pageWidth="1169" pageHeight="827" math="0" shadow="0">
      <root>
        <mxCell id="dSsJA4RfPpSCwfcWM4q2-0" />
        <mxCell id="dSsJA4RfPpSCwfcWM4q2-1" parent="dSsJA4RfPpSCwfcWM4q2-0" />
        <mxCell id="dSsJA4RfPpSCwfcWM4q2-2" style="edgeStyle=orthogonalEdgeStyle;rounded=0;orthogonalLoop=1;jettySize=auto;html=1;flowAnimation=1;" edge="1" parent="dSsJA4RfPpSCwfcWM4q2-1" source="dSsJA4RfPpSCwfcWM4q2-3" target="dSsJA4RfPpSCwfcWM4q2-9">
          <mxGeometry relative="1" as="geometry">
            <Array as="points">
              <mxPoint x="436" y="410" />
              <mxPoint x="436" y="410" />
            </Array>
          </mxGeometry>
        </mxCell>
        <mxCell id="dSsJA4RfPpSCwfcWM4q2-3" value="Client" style="image;html=1;image=img/lib/clip_art/computers/iMac_128x128.png" vertex="1" parent="dSsJA4RfPpSCwfcWM4q2-1">
          <mxGeometry x="323" y="374" width="80" height="80" as="geometry" />
        </mxCell>
        <mxCell id="dSsJA4RfPpSCwfcWM4q2-4" style="edgeStyle=orthogonalEdgeStyle;rounded=0;orthogonalLoop=1;jettySize=auto;html=1;flowAnimation=1;" edge="1" parent="dSsJA4RfPpSCwfcWM4q2-1" target="dSsJA4RfPpSCwfcWM4q2-9">
          <mxGeometry relative="1" as="geometry">
            <mxPoint x="573" y="420" as="sourcePoint" />
            <Array as="points">
              <mxPoint x="536" y="420" />
              <mxPoint x="536" y="420" />
            </Array>
          </mxGeometry>
        </mxCell>
        <mxCell id="dSsJA4RfPpSCwfcWM4q2-5" style="edgeStyle=orthogonalEdgeStyle;rounded=0;orthogonalLoop=1;jettySize=auto;html=1;flowAnimation=1;" edge="1" parent="dSsJA4RfPpSCwfcWM4q2-1" target="dSsJA4RfPpSCwfcWM4q2-12">
          <mxGeometry relative="1" as="geometry">
            <mxPoint x="636" y="410" as="sourcePoint" />
            <Array as="points">
              <mxPoint x="686" y="410" />
              <mxPoint x="686" y="410" />
            </Array>
          </mxGeometry>
        </mxCell>
        <mxCell id="dSsJA4RfPpSCwfcWM4q2-7" style="edgeStyle=orthogonalEdgeStyle;rounded=0;orthogonalLoop=1;jettySize=auto;html=1;flowAnimation=1;" edge="1" parent="dSsJA4RfPpSCwfcWM4q2-1" source="dSsJA4RfPpSCwfcWM4q2-9" target="dSsJA4RfPpSCwfcWM4q2-3">
          <mxGeometry relative="1" as="geometry">
            <Array as="points">
              <mxPoint x="436" y="420" />
              <mxPoint x="436" y="420" />
            </Array>
          </mxGeometry>
        </mxCell>
        <mxCell id="dSsJA4RfPpSCwfcWM4q2-8" style="edgeStyle=orthogonalEdgeStyle;rounded=0;orthogonalLoop=1;jettySize=auto;html=1;flowAnimation=1;" edge="1" parent="dSsJA4RfPpSCwfcWM4q2-1" source="dSsJA4RfPpSCwfcWM4q2-9">
          <mxGeometry relative="1" as="geometry">
            <mxPoint x="573" y="410" as="targetPoint" />
            <Array as="points">
              <mxPoint x="536" y="410" />
              <mxPoint x="536" y="410" />
            </Array>
          </mxGeometry>
        </mxCell>
        <mxCell id="dSsJA4RfPpSCwfcWM4q2-9" value="" style="verticalLabelPosition=bottom;html=1;verticalAlign=top;strokeWidth=1;align=center;outlineConnect=0;dashed=0;outlineConnect=0;shape=mxgraph.aws3d.image;strokeColor=none;fillColor=#777777;aspect=fixed;" vertex="1" parent="dSsJA4RfPpSCwfcWM4q2-1">
          <mxGeometry x="466" y="388" width="30.23" height="52" as="geometry" />
        </mxCell>
        <mxCell id="dSsJA4RfPpSCwfcWM4q2-10" style="edgeStyle=orthogonalEdgeStyle;rounded=0;orthogonalLoop=1;jettySize=auto;html=1;flowAnimation=1;" edge="1" parent="dSsJA4RfPpSCwfcWM4q2-1" source="dSsJA4RfPpSCwfcWM4q2-12">
          <mxGeometry relative="1" as="geometry">
            <mxPoint x="636" y="420" as="targetPoint" />
            <Array as="points">
              <mxPoint x="686" y="420" />
              <mxPoint x="686" y="420" />
            </Array>
          </mxGeometry>
        </mxCell>
        <mxCell id="dSsJA4RfPpSCwfcWM4q2-11" style="edgeStyle=orthogonalEdgeStyle;rounded=0;orthogonalLoop=1;jettySize=auto;html=1;flowAnimation=1;" edge="1" parent="dSsJA4RfPpSCwfcWM4q2-1" source="dSsJA4RfPpSCwfcWM4q2-12">
          <mxGeometry relative="1" as="geometry">
            <mxPoint x="796" y="410" as="targetPoint" />
            <Array as="points">
              <mxPoint x="766" y="410" />
              <mxPoint x="766" y="410" />
            </Array>
          </mxGeometry>
        </mxCell>
        <mxCell id="dSsJA4RfPpSCwfcWM4q2-12" value="" style="verticalLabelPosition=bottom;html=1;verticalAlign=top;strokeWidth=1;align=center;outlineConnect=0;dashed=0;outlineConnect=0;shape=mxgraph.aws3d.image;strokeColor=none;fillColor=#777777;aspect=fixed;" vertex="1" parent="dSsJA4RfPpSCwfcWM4q2-1">
          <mxGeometry x="706" y="388" width="30.23" height="52" as="geometry" />
        </mxCell>
        <mxCell id="dSsJA4RfPpSCwfcWM4q2-13" style="edgeStyle=orthogonalEdgeStyle;rounded=0;orthogonalLoop=1;jettySize=auto;html=1;flowAnimation=1;" edge="1" parent="dSsJA4RfPpSCwfcWM4q2-1" target="dSsJA4RfPpSCwfcWM4q2-12">
          <mxGeometry relative="1" as="geometry">
            <mxPoint x="796" y="420" as="sourcePoint" />
            <Array as="points">
              <mxPoint x="766" y="420" />
              <mxPoint x="766" y="420" />
            </Array>
          </mxGeometry>
        </mxCell>
        <mxCell id="GK5hIVBf3n34CRLN3hOK-0" value="API" style="sketch=0;points=[[0,0,0],[0.25,0,0],[0.5,0,0],[0.75,0,0],[1,0,0],[0,1,0],[0.25,1,0],[0.5,1,0],[0.75,1,0],[1,1,0],[0,0.25,0],[0,0.5,0],[0,0.75,0],[1,0.25,0],[1,0.5,0],[1,0.75,0]];outlineConnect=0;fontColor=#232F3E;fillColor=#E7157B;strokeColor=#ffffff;dashed=0;verticalLabelPosition=bottom;verticalAlign=top;align=center;html=1;fontSize=12;fontStyle=0;aspect=fixed;shape=mxgraph.aws4.resourceIcon;resIcon=mxgraph.aws4.api_gateway;" vertex="1" parent="dSsJA4RfPpSCwfcWM4q2-1">
          <mxGeometry x="576" y="389" width="50" height="50" as="geometry" />
        </mxCell>
        <mxCell id="GK5hIVBf3n34CRLN3hOK-3" value="S3" style="sketch=0;points=[[0,0,0],[0.25,0,0],[0.5,0,0],[0.75,0,0],[1,0,0],[0,1,0],[0.25,1,0],[0.5,1,0],[0.75,1,0],[1,1,0],[0,0.25,0],[0,0.5,0],[0,0.75,0],[1,0.25,0],[1,0.5,0],[1,0.75,0]];outlineConnect=0;fontColor=#232F3E;fillColor=#7AA116;strokeColor=#ffffff;dashed=0;verticalLabelPosition=bottom;verticalAlign=top;align=center;html=1;fontSize=12;fontStyle=0;aspect=fixed;shape=mxgraph.aws4.resourceIcon;resIcon=mxgraph.aws4.s3;" vertex="1" parent="dSsJA4RfPpSCwfcWM4q2-1">
          <mxGeometry x="796" y="389" width="50" height="50" as="geometry" />
        </mxCell>
      </root>
    </mxGraphModel>
  </diagram>
  <diagram name="Solution-3" id="_cSXg3JgTt-2_7wsRhel">
    <mxGraphModel dx="1306" dy="825" grid="1" gridSize="10" guides="1" tooltips="1" connect="1" arrows="1" fold="1" page="1" pageScale="1" pageWidth="1169" pageHeight="827" math="0" shadow="0">
      <root>
        <mxCell id="diRIYQ4MY-aN88RkYUPm-0" />
        <mxCell id="diRIYQ4MY-aN88RkYUPm-1" parent="diRIYQ4MY-aN88RkYUPm-0" />
        <mxCell id="diRIYQ4MY-aN88RkYUPm-2" style="edgeStyle=orthogonalEdgeStyle;rounded=0;orthogonalLoop=1;jettySize=auto;html=1;flowAnimation=1;" parent="diRIYQ4MY-aN88RkYUPm-1" source="diRIYQ4MY-aN88RkYUPm-3" target="diRIYQ4MY-aN88RkYUPm-8" edge="1">
          <mxGeometry relative="1" as="geometry">
            <Array as="points">
              <mxPoint x="376" y="410" />
              <mxPoint x="376" y="410" />
            </Array>
          </mxGeometry>
        </mxCell>
        <mxCell id="diRIYQ4MY-aN88RkYUPm-3" value="Client" style="image;html=1;image=img/lib/clip_art/computers/iMac_128x128.png" parent="diRIYQ4MY-aN88RkYUPm-1" vertex="1">
          <mxGeometry x="263" y="374" width="80" height="80" as="geometry" />
        </mxCell>
        <mxCell id="diRIYQ4MY-aN88RkYUPm-4" style="edgeStyle=orthogonalEdgeStyle;rounded=0;orthogonalLoop=1;jettySize=auto;html=1;flowAnimation=1;" parent="diRIYQ4MY-aN88RkYUPm-1" target="diRIYQ4MY-aN88RkYUPm-8" edge="1">
          <mxGeometry relative="1" as="geometry">
            <mxPoint x="513" y="420" as="sourcePoint" />
            <Array as="points">
              <mxPoint x="476" y="420" />
              <mxPoint x="476" y="420" />
            </Array>
          </mxGeometry>
        </mxCell>
        <mxCell id="diRIYQ4MY-aN88RkYUPm-5" style="edgeStyle=orthogonalEdgeStyle;rounded=0;orthogonalLoop=1;jettySize=auto;html=1;flowAnimation=1;" parent="diRIYQ4MY-aN88RkYUPm-1" target="diRIYQ4MY-aN88RkYUPm-11" edge="1">
          <mxGeometry relative="1" as="geometry">
            <mxPoint x="576" y="410" as="sourcePoint" />
            <Array as="points">
              <mxPoint x="626" y="410" />
              <mxPoint x="626" y="410" />
            </Array>
          </mxGeometry>
        </mxCell>
        <mxCell id="diRIYQ4MY-aN88RkYUPm-6" style="edgeStyle=orthogonalEdgeStyle;rounded=0;orthogonalLoop=1;jettySize=auto;html=1;flowAnimation=1;" parent="diRIYQ4MY-aN88RkYUPm-1" source="diRIYQ4MY-aN88RkYUPm-8" target="diRIYQ4MY-aN88RkYUPm-3" edge="1">
          <mxGeometry relative="1" as="geometry">
            <Array as="points">
              <mxPoint x="376" y="420" />
              <mxPoint x="376" y="420" />
            </Array>
          </mxGeometry>
        </mxCell>
        <mxCell id="diRIYQ4MY-aN88RkYUPm-7" style="edgeStyle=orthogonalEdgeStyle;rounded=0;orthogonalLoop=1;jettySize=auto;html=1;flowAnimation=1;" parent="diRIYQ4MY-aN88RkYUPm-1" source="diRIYQ4MY-aN88RkYUPm-8" edge="1">
          <mxGeometry relative="1" as="geometry">
            <mxPoint x="513" y="410" as="targetPoint" />
            <Array as="points">
              <mxPoint x="476" y="410" />
              <mxPoint x="476" y="410" />
            </Array>
          </mxGeometry>
        </mxCell>
        <mxCell id="diRIYQ4MY-aN88RkYUPm-8" value="" style="verticalLabelPosition=bottom;html=1;verticalAlign=top;strokeWidth=1;align=center;outlineConnect=0;dashed=0;outlineConnect=0;shape=mxgraph.aws3d.image;strokeColor=none;fillColor=#777777;aspect=fixed;" parent="diRIYQ4MY-aN88RkYUPm-1" vertex="1">
          <mxGeometry x="406" y="388" width="30.23" height="52" as="geometry" />
        </mxCell>
        <mxCell id="diRIYQ4MY-aN88RkYUPm-9" style="edgeStyle=orthogonalEdgeStyle;rounded=0;orthogonalLoop=1;jettySize=auto;html=1;flowAnimation=1;" parent="diRIYQ4MY-aN88RkYUPm-1" source="diRIYQ4MY-aN88RkYUPm-11" edge="1">
          <mxGeometry relative="1" as="geometry">
            <mxPoint x="576" y="420" as="targetPoint" />
            <Array as="points">
              <mxPoint x="626" y="420" />
              <mxPoint x="626" y="420" />
            </Array>
          </mxGeometry>
        </mxCell>
        <mxCell id="diRIYQ4MY-aN88RkYUPm-10" style="edgeStyle=orthogonalEdgeStyle;rounded=0;orthogonalLoop=1;jettySize=auto;html=1;flowAnimation=1;" parent="diRIYQ4MY-aN88RkYUPm-1" source="diRIYQ4MY-aN88RkYUPm-11" edge="1">
          <mxGeometry relative="1" as="geometry">
            <mxPoint x="736" y="410" as="targetPoint" />
            <Array as="points">
              <mxPoint x="706" y="410" />
              <mxPoint x="706" y="410" />
            </Array>
          </mxGeometry>
        </mxCell>
        <mxCell id="diRIYQ4MY-aN88RkYUPm-11" value="" style="verticalLabelPosition=bottom;html=1;verticalAlign=top;strokeWidth=1;align=center;outlineConnect=0;dashed=0;outlineConnect=0;shape=mxgraph.aws3d.image;strokeColor=none;fillColor=#777777;aspect=fixed;" parent="diRIYQ4MY-aN88RkYUPm-1" vertex="1">
          <mxGeometry x="636" y="388" width="30.23" height="52" as="geometry" />
        </mxCell>
        <mxCell id="diRIYQ4MY-aN88RkYUPm-12" style="edgeStyle=orthogonalEdgeStyle;rounded=0;orthogonalLoop=1;jettySize=auto;html=1;flowAnimation=1;" parent="diRIYQ4MY-aN88RkYUPm-1" target="diRIYQ4MY-aN88RkYUPm-11" edge="1">
          <mxGeometry relative="1" as="geometry">
            <mxPoint x="736" y="420" as="sourcePoint" />
            <Array as="points">
              <mxPoint x="706" y="420" />
              <mxPoint x="706" y="420" />
            </Array>
          </mxGeometry>
        </mxCell>
        <mxCell id="diRIYQ4MY-aN88RkYUPm-13" value="" style="edgeStyle=orthogonalEdgeStyle;rounded=0;orthogonalLoop=1;jettySize=auto;html=1;flowAnimation=1;" parent="diRIYQ4MY-aN88RkYUPm-1" source="diRIYQ4MY-aN88RkYUPm-15" edge="1">
          <mxGeometry relative="1" as="geometry">
            <mxPoint x="856" y="410" as="targetPoint" />
            <Array as="points">
              <mxPoint x="826" y="410" />
              <mxPoint x="826" y="410" />
            </Array>
          </mxGeometry>
        </mxCell>
        <mxCell id="diRIYQ4MY-aN88RkYUPm-14" value="" style="edgeStyle=orthogonalEdgeStyle;rounded=0;orthogonalLoop=1;jettySize=auto;html=1;flowAnimation=1;" parent="diRIYQ4MY-aN88RkYUPm-1" source="diRIYQ4MY-aN88RkYUPm-15" target="diRIYQ4MY-aN88RkYUPm-19" edge="1">
          <mxGeometry relative="1" as="geometry" />
        </mxCell>
        <mxCell id="cWYjOQUGDc6v1ZKPJTHr-0" value="To check the video" style="edgeLabel;html=1;align=center;verticalAlign=middle;resizable=0;points=[];" vertex="1" connectable="0" parent="diRIYQ4MY-aN88RkYUPm-14">
          <mxGeometry x="0.25" y="-1" relative="1" as="geometry">
            <mxPoint as="offset" />
          </mxGeometry>
        </mxCell>
        <mxCell id="7vIdpa1L4sfdoL7jO0v2-1" value="" style="edgeStyle=orthogonalEdgeStyle;rounded=0;orthogonalLoop=1;jettySize=auto;html=1;flowAnimation=1;" parent="diRIYQ4MY-aN88RkYUPm-1" edge="1">
          <mxGeometry relative="1" as="geometry">
            <mxPoint x="755" y="438" as="sourcePoint" />
            <mxPoint x="755" y="510" as="targetPoint" />
            <Array as="points">
              <mxPoint x="755" y="480" />
              <mxPoint x="755" y="480" />
            </Array>
          </mxGeometry>
        </mxCell>
        <mxCell id="diRIYQ4MY-aN88RkYUPm-15" value="" style="sketch=0;points=[[0,0,0],[0.25,0,0],[0.5,0,0],[0.75,0,0],[1,0,0],[0,1,0],[0.25,1,0],[0.5,1,0],[0.75,1,0],[1,1,0],[0,0.25,0],[0,0.5,0],[0,0.75,0],[1,0.25,0],[1,0.5,0],[1,0.75,0]];outlineConnect=0;fontColor=#232F3E;fillColor=#ED7100;strokeColor=#ffffff;dashed=0;verticalLabelPosition=bottom;verticalAlign=top;align=center;html=1;fontSize=12;fontStyle=0;aspect=fixed;shape=mxgraph.aws4.resourceIcon;resIcon=mxgraph.aws4.lambda;" parent="diRIYQ4MY-aN88RkYUPm-1" vertex="1">
          <mxGeometry x="736" y="388" width="50" height="50" as="geometry" />
        </mxCell>
        <mxCell id="diRIYQ4MY-aN88RkYUPm-16" value="API" style="sketch=0;points=[[0,0,0],[0.25,0,0],[0.5,0,0],[0.75,0,0],[1,0,0],[0,1,0],[0.25,1,0],[0.5,1,0],[0.75,1,0],[1,1,0],[0,0.25,0],[0,0.5,0],[0,0.75,0],[1,0.25,0],[1,0.5,0],[1,0.75,0]];outlineConnect=0;fontColor=#232F3E;fillColor=#E7157B;strokeColor=#ffffff;dashed=0;verticalLabelPosition=bottom;verticalAlign=top;align=center;html=1;fontSize=12;fontStyle=0;aspect=fixed;shape=mxgraph.aws4.resourceIcon;resIcon=mxgraph.aws4.api_gateway;" parent="diRIYQ4MY-aN88RkYUPm-1" vertex="1">
          <mxGeometry x="515.5" y="389" width="50" height="50" as="geometry" />
        </mxCell>
        <mxCell id="diRIYQ4MY-aN88RkYUPm-17" value="" style="edgeStyle=orthogonalEdgeStyle;rounded=0;orthogonalLoop=1;jettySize=auto;html=1;flowAnimation=1;" parent="diRIYQ4MY-aN88RkYUPm-1" target="diRIYQ4MY-aN88RkYUPm-15" edge="1">
          <mxGeometry relative="1" as="geometry">
            <mxPoint x="856" y="420" as="sourcePoint" />
            <Array as="points">
              <mxPoint x="826" y="420" />
              <mxPoint x="826" y="420" />
            </Array>
          </mxGeometry>
        </mxCell>
        <mxCell id="diRIYQ4MY-aN88RkYUPm-18" value="S3" style="sketch=0;points=[[0,0,0],[0.25,0,0],[0.5,0,0],[0.75,0,0],[1,0,0],[0,1,0],[0.25,1,0],[0.5,1,0],[0.75,1,0],[1,1,0],[0,0.25,0],[0,0.5,0],[0,0.75,0],[1,0.25,0],[1,0.5,0],[1,0.75,0]];outlineConnect=0;fontColor=#232F3E;fillColor=#7AA116;strokeColor=#ffffff;dashed=0;verticalLabelPosition=bottom;verticalAlign=top;align=center;html=1;fontSize=12;fontStyle=0;aspect=fixed;shape=mxgraph.aws4.resourceIcon;resIcon=mxgraph.aws4.s3;" parent="diRIYQ4MY-aN88RkYUPm-1" vertex="1">
          <mxGeometry x="856" y="388" width="50" height="50" as="geometry" />
        </mxCell>
        <mxCell id="diRIYQ4MY-aN88RkYUPm-19" value="Rekognition" style="sketch=0;points=[[0,0,0],[0.25,0,0],[0.5,0,0],[0.75,0,0],[1,0,0],[0,1,0],[0.25,1,0],[0.5,1,0],[0.75,1,0],[1,1,0],[0,0.25,0],[0,0.5,0],[0,0.75,0],[1,0.25,0],[1,0.5,0],[1,0.75,0]];outlineConnect=0;fontColor=#232F3E;fillColor=#01A88D;strokeColor=#ffffff;dashed=0;verticalLabelPosition=top;verticalAlign=bottom;align=center;html=1;fontSize=12;fontStyle=0;aspect=fixed;shape=mxgraph.aws4.resourceIcon;resIcon=mxgraph.aws4.rekognition_2;labelPosition=center;" parent="diRIYQ4MY-aN88RkYUPm-1" vertex="1">
          <mxGeometry x="738" y="270" width="46" height="46" as="geometry" />
        </mxCell>
        <mxCell id="7vIdpa1L4sfdoL7jO0v2-2" value="" style="edgeStyle=orthogonalEdgeStyle;rounded=0;orthogonalLoop=1;jettySize=auto;html=1;flowAnimation=1;" parent="diRIYQ4MY-aN88RkYUPm-1" edge="1">
          <mxGeometry relative="1" as="geometry">
            <mxPoint x="764" y="510" as="sourcePoint" />
            <mxPoint x="764" y="438" as="targetPoint" />
            <Array as="points">
              <mxPoint x="764" y="480" />
              <mxPoint x="764" y="480" />
            </Array>
          </mxGeometry>
        </mxCell>
        <mxCell id="7vIdpa1L4sfdoL7jO0v2-0" value="DynamoDB" style="sketch=0;points=[[0,0,0],[0.25,0,0],[0.5,0,0],[0.75,0,0],[1,0,0],[0,1,0],[0.25,1,0],[0.5,1,0],[0.75,1,0],[1,1,0],[0,0.25,0],[0,0.5,0],[0,0.75,0],[1,0.25,0],[1,0.5,0],[1,0.75,0]];outlineConnect=0;fontColor=#232F3E;fillColor=#C925D1;strokeColor=#ffffff;dashed=0;verticalLabelPosition=bottom;verticalAlign=top;align=center;html=1;fontSize=12;fontStyle=0;aspect=fixed;shape=mxgraph.aws4.resourceIcon;resIcon=mxgraph.aws4.dynamodb;" parent="diRIYQ4MY-aN88RkYUPm-1" vertex="1">
          <mxGeometry x="736" y="510" width="50" height="50" as="geometry" />
        </mxCell>
      </root>
    </mxGraphModel>
  </diagram>
  <diagram name="Solution-4" id="7bVMCvKCm2H2iEhOdFXt">
    <mxGraphModel dx="1306" dy="825" grid="1" gridSize="10" guides="1" tooltips="1" connect="1" arrows="1" fold="1" page="1" pageScale="1" pageWidth="1169" pageHeight="827" math="0" shadow="0">
      <root>
        <mxCell id="SLDHy1DiMdNnZ1jH-4uN-0" />
        <mxCell id="SLDHy1DiMdNnZ1jH-4uN-1" parent="SLDHy1DiMdNnZ1jH-4uN-0" />
        <mxCell id="SLDHy1DiMdNnZ1jH-4uN-2" style="edgeStyle=orthogonalEdgeStyle;rounded=0;orthogonalLoop=1;jettySize=auto;html=1;flowAnimation=1;" parent="SLDHy1DiMdNnZ1jH-4uN-1" source="SLDHy1DiMdNnZ1jH-4uN-3" target="SLDHy1DiMdNnZ1jH-4uN-8" edge="1">
          <mxGeometry relative="1" as="geometry">
            <Array as="points">
              <mxPoint x="254" y="410" />
              <mxPoint x="254" y="410" />
            </Array>
          </mxGeometry>
        </mxCell>
        <mxCell id="SLDHy1DiMdNnZ1jH-4uN-3" value="Client" style="image;html=1;image=img/lib/clip_art/computers/iMac_128x128.png" parent="SLDHy1DiMdNnZ1jH-4uN-1" vertex="1">
          <mxGeometry x="141" y="374" width="80" height="80" as="geometry" />
        </mxCell>
        <mxCell id="SLDHy1DiMdNnZ1jH-4uN-4" style="edgeStyle=orthogonalEdgeStyle;rounded=0;orthogonalLoop=1;jettySize=auto;html=1;flowAnimation=1;" parent="SLDHy1DiMdNnZ1jH-4uN-1" target="SLDHy1DiMdNnZ1jH-4uN-8" edge="1">
          <mxGeometry relative="1" as="geometry">
            <mxPoint x="391" y="420" as="sourcePoint" />
            <Array as="points">
              <mxPoint x="354" y="420" />
              <mxPoint x="354" y="420" />
            </Array>
          </mxGeometry>
        </mxCell>
        <mxCell id="SLDHy1DiMdNnZ1jH-4uN-5" style="edgeStyle=orthogonalEdgeStyle;rounded=0;orthogonalLoop=1;jettySize=auto;html=1;flowAnimation=1;" parent="SLDHy1DiMdNnZ1jH-4uN-1" target="SLDHy1DiMdNnZ1jH-4uN-11" edge="1">
          <mxGeometry relative="1" as="geometry">
            <mxPoint x="454" y="410" as="sourcePoint" />
            <Array as="points">
              <mxPoint x="504" y="410" />
              <mxPoint x="504" y="410" />
            </Array>
          </mxGeometry>
        </mxCell>
        <mxCell id="SLDHy1DiMdNnZ1jH-4uN-6" style="edgeStyle=orthogonalEdgeStyle;rounded=0;orthogonalLoop=1;jettySize=auto;html=1;flowAnimation=1;" parent="SLDHy1DiMdNnZ1jH-4uN-1" source="SLDHy1DiMdNnZ1jH-4uN-8" target="SLDHy1DiMdNnZ1jH-4uN-3" edge="1">
          <mxGeometry relative="1" as="geometry">
            <Array as="points">
              <mxPoint x="254" y="420" />
              <mxPoint x="254" y="420" />
            </Array>
          </mxGeometry>
        </mxCell>
        <mxCell id="SLDHy1DiMdNnZ1jH-4uN-7" style="edgeStyle=orthogonalEdgeStyle;rounded=0;orthogonalLoop=1;jettySize=auto;html=1;flowAnimation=1;" parent="SLDHy1DiMdNnZ1jH-4uN-1" source="SLDHy1DiMdNnZ1jH-4uN-8" edge="1">
          <mxGeometry relative="1" as="geometry">
            <mxPoint x="391" y="410" as="targetPoint" />
            <Array as="points">
              <mxPoint x="354" y="410" />
              <mxPoint x="354" y="410" />
            </Array>
          </mxGeometry>
        </mxCell>
        <mxCell id="SLDHy1DiMdNnZ1jH-4uN-8" value="" style="verticalLabelPosition=bottom;html=1;verticalAlign=top;strokeWidth=1;align=center;outlineConnect=0;dashed=0;outlineConnect=0;shape=mxgraph.aws3d.image;strokeColor=none;fillColor=#777777;aspect=fixed;" parent="SLDHy1DiMdNnZ1jH-4uN-1" vertex="1">
          <mxGeometry x="284" y="388" width="30.23" height="52" as="geometry" />
        </mxCell>
        <mxCell id="SLDHy1DiMdNnZ1jH-4uN-9" style="edgeStyle=orthogonalEdgeStyle;rounded=0;orthogonalLoop=1;jettySize=auto;html=1;flowAnimation=1;" parent="SLDHy1DiMdNnZ1jH-4uN-1" source="SLDHy1DiMdNnZ1jH-4uN-11" edge="1">
          <mxGeometry relative="1" as="geometry">
            <mxPoint x="454" y="420" as="targetPoint" />
            <Array as="points">
              <mxPoint x="504" y="420" />
              <mxPoint x="504" y="420" />
            </Array>
          </mxGeometry>
        </mxCell>
        <mxCell id="SLDHy1DiMdNnZ1jH-4uN-10" style="edgeStyle=orthogonalEdgeStyle;rounded=0;orthogonalLoop=1;jettySize=auto;html=1;flowAnimation=1;" parent="SLDHy1DiMdNnZ1jH-4uN-1" source="SLDHy1DiMdNnZ1jH-4uN-11" edge="1">
          <mxGeometry relative="1" as="geometry">
            <mxPoint x="614" y="410" as="targetPoint" />
            <Array as="points">
              <mxPoint x="584" y="410" />
              <mxPoint x="584" y="410" />
            </Array>
          </mxGeometry>
        </mxCell>
        <mxCell id="SLDHy1DiMdNnZ1jH-4uN-11" value="" style="verticalLabelPosition=bottom;html=1;verticalAlign=top;strokeWidth=1;align=center;outlineConnect=0;dashed=0;outlineConnect=0;shape=mxgraph.aws3d.image;strokeColor=none;fillColor=#777777;aspect=fixed;" parent="SLDHy1DiMdNnZ1jH-4uN-1" vertex="1">
          <mxGeometry x="514" y="388" width="30.23" height="52" as="geometry" />
        </mxCell>
        <mxCell id="SLDHy1DiMdNnZ1jH-4uN-12" style="edgeStyle=orthogonalEdgeStyle;rounded=0;orthogonalLoop=1;jettySize=auto;html=1;flowAnimation=1;" parent="SLDHy1DiMdNnZ1jH-4uN-1" target="SLDHy1DiMdNnZ1jH-4uN-11" edge="1">
          <mxGeometry relative="1" as="geometry">
            <mxPoint x="614" y="420" as="sourcePoint" />
            <Array as="points">
              <mxPoint x="584" y="420" />
              <mxPoint x="584" y="420" />
            </Array>
          </mxGeometry>
        </mxCell>
        <mxCell id="SLDHy1DiMdNnZ1jH-4uN-13" value="" style="edgeStyle=orthogonalEdgeStyle;rounded=0;orthogonalLoop=1;jettySize=auto;html=1;flowAnimation=1;" parent="SLDHy1DiMdNnZ1jH-4uN-1" source="SLDHy1DiMdNnZ1jH-4uN-16" edge="1">
          <mxGeometry relative="1" as="geometry">
            <mxPoint x="734" y="410" as="targetPoint" />
            <Array as="points">
              <mxPoint x="704" y="410" />
              <mxPoint x="704" y="410" />
            </Array>
          </mxGeometry>
        </mxCell>
        <mxCell id="SLDHy1DiMdNnZ1jH-4uN-14" value="" style="edgeStyle=orthogonalEdgeStyle;rounded=0;orthogonalLoop=1;jettySize=auto;html=1;flowAnimation=1;" parent="SLDHy1DiMdNnZ1jH-4uN-1" source="SLDHy1DiMdNnZ1jH-4uN-16" target="SLDHy1DiMdNnZ1jH-4uN-20" edge="1">
          <mxGeometry relative="1" as="geometry" />
        </mxCell>
        <mxCell id="5OaCeDNvVuSwdLpF136B-0" value="To check the video" style="edgeLabel;html=1;align=center;verticalAlign=middle;resizable=0;points=[];" vertex="1" connectable="0" parent="SLDHy1DiMdNnZ1jH-4uN-14">
          <mxGeometry y="-2" relative="1" as="geometry">
            <mxPoint as="offset" />
          </mxGeometry>
        </mxCell>
        <mxCell id="SLDHy1DiMdNnZ1jH-4uN-15" value="" style="edgeStyle=orthogonalEdgeStyle;rounded=0;orthogonalLoop=1;jettySize=auto;html=1;flowAnimation=1;" parent="SLDHy1DiMdNnZ1jH-4uN-1" edge="1">
          <mxGeometry relative="1" as="geometry">
            <mxPoint x="633" y="438" as="sourcePoint" />
            <mxPoint x="633" y="510" as="targetPoint" />
            <Array as="points">
              <mxPoint x="633" y="480" />
              <mxPoint x="633" y="480" />
            </Array>
          </mxGeometry>
        </mxCell>
        <mxCell id="SLDHy1DiMdNnZ1jH-4uN-16" value="" style="sketch=0;points=[[0,0,0],[0.25,0,0],[0.5,0,0],[0.75,0,0],[1,0,0],[0,1,0],[0.25,1,0],[0.5,1,0],[0.75,1,0],[1,1,0],[0,0.25,0],[0,0.5,0],[0,0.75,0],[1,0.25,0],[1,0.5,0],[1,0.75,0]];outlineConnect=0;fontColor=#232F3E;fillColor=#ED7100;strokeColor=#ffffff;dashed=0;verticalLabelPosition=bottom;verticalAlign=top;align=center;html=1;fontSize=12;fontStyle=0;aspect=fixed;shape=mxgraph.aws4.resourceIcon;resIcon=mxgraph.aws4.lambda;" parent="SLDHy1DiMdNnZ1jH-4uN-1" vertex="1">
          <mxGeometry x="614" y="388" width="50" height="50" as="geometry" />
        </mxCell>
        <mxCell id="SLDHy1DiMdNnZ1jH-4uN-17" value="API" style="sketch=0;points=[[0,0,0],[0.25,0,0],[0.5,0,0],[0.75,0,0],[1,0,0],[0,1,0],[0.25,1,0],[0.5,1,0],[0.75,1,0],[1,1,0],[0,0.25,0],[0,0.5,0],[0,0.75,0],[1,0.25,0],[1,0.5,0],[1,0.75,0]];outlineConnect=0;fontColor=#232F3E;fillColor=#E7157B;strokeColor=#ffffff;dashed=0;verticalLabelPosition=bottom;verticalAlign=top;align=center;html=1;fontSize=12;fontStyle=0;aspect=fixed;shape=mxgraph.aws4.resourceIcon;resIcon=mxgraph.aws4.api_gateway;" parent="SLDHy1DiMdNnZ1jH-4uN-1" vertex="1">
          <mxGeometry x="393.5" y="389" width="50" height="50" as="geometry" />
        </mxCell>
        <mxCell id="SLDHy1DiMdNnZ1jH-4uN-18" value="" style="edgeStyle=orthogonalEdgeStyle;rounded=0;orthogonalLoop=1;jettySize=auto;html=1;flowAnimation=1;" parent="SLDHy1DiMdNnZ1jH-4uN-1" target="SLDHy1DiMdNnZ1jH-4uN-16" edge="1">
          <mxGeometry relative="1" as="geometry">
            <mxPoint x="734" y="420" as="sourcePoint" />
            <Array as="points">
              <mxPoint x="704" y="420" />
              <mxPoint x="704" y="420" />
            </Array>
          </mxGeometry>
        </mxCell>
        <mxCell id="YldkjUizYy74dHa_TeQw-10" value="" style="edgeStyle=orthogonalEdgeStyle;rounded=0;orthogonalLoop=1;jettySize=auto;html=1;flowAnimation=1;" parent="SLDHy1DiMdNnZ1jH-4uN-1" edge="1">
          <mxGeometry relative="1" as="geometry">
            <mxPoint x="784" y="410" as="sourcePoint" />
            <mxPoint x="858" y="410" as="targetPoint" />
          </mxGeometry>
        </mxCell>
        <mxCell id="SLDHy1DiMdNnZ1jH-4uN-19" value="S3" style="sketch=0;points=[[0,0,0],[0.25,0,0],[0.5,0,0],[0.75,0,0],[1,0,0],[0,1,0],[0.25,1,0],[0.5,1,0],[0.75,1,0],[1,1,0],[0,0.25,0],[0,0.5,0],[0,0.75,0],[1,0.25,0],[1,0.5,0],[1,0.75,0]];outlineConnect=0;fontColor=#232F3E;fillColor=#7AA116;strokeColor=#ffffff;dashed=0;verticalLabelPosition=bottom;verticalAlign=top;align=center;html=1;fontSize=12;fontStyle=0;aspect=fixed;shape=mxgraph.aws4.resourceIcon;resIcon=mxgraph.aws4.s3;" parent="SLDHy1DiMdNnZ1jH-4uN-1" vertex="1">
          <mxGeometry x="734" y="388" width="50" height="50" as="geometry" />
        </mxCell>
        <mxCell id="SLDHy1DiMdNnZ1jH-4uN-20" value="Rekognition" style="sketch=0;points=[[0,0,0],[0.25,0,0],[0.5,0,0],[0.75,0,0],[1,0,0],[0,1,0],[0.25,1,0],[0.5,1,0],[0.75,1,0],[1,1,0],[0,0.25,0],[0,0.5,0],[0,0.75,0],[1,0.25,0],[1,0.5,0],[1,0.75,0]];outlineConnect=0;fontColor=#232F3E;fillColor=#01A88D;strokeColor=#ffffff;dashed=0;verticalLabelPosition=top;verticalAlign=bottom;align=center;html=1;fontSize=12;fontStyle=0;aspect=fixed;shape=mxgraph.aws4.resourceIcon;resIcon=mxgraph.aws4.rekognition_2;labelPosition=center;" parent="SLDHy1DiMdNnZ1jH-4uN-1" vertex="1">
          <mxGeometry x="616" y="270" width="46" height="46" as="geometry" />
        </mxCell>
        <mxCell id="SLDHy1DiMdNnZ1jH-4uN-21" value="" style="edgeStyle=orthogonalEdgeStyle;rounded=0;orthogonalLoop=1;jettySize=auto;html=1;flowAnimation=1;" parent="SLDHy1DiMdNnZ1jH-4uN-1" edge="1">
          <mxGeometry relative="1" as="geometry">
            <mxPoint x="642" y="510" as="sourcePoint" />
            <mxPoint x="642" y="438" as="targetPoint" />
            <Array as="points">
              <mxPoint x="642" y="480" />
              <mxPoint x="642" y="480" />
            </Array>
          </mxGeometry>
        </mxCell>
        <mxCell id="SLDHy1DiMdNnZ1jH-4uN-22" value="DynamoDB" style="sketch=0;points=[[0,0,0],[0.25,0,0],[0.5,0,0],[0.75,0,0],[1,0,0],[0,1,0],[0.25,1,0],[0.5,1,0],[0.75,1,0],[1,1,0],[0,0.25,0],[0,0.5,0],[0,0.75,0],[1,0.25,0],[1,0.5,0],[1,0.75,0]];outlineConnect=0;fontColor=#232F3E;fillColor=#C925D1;strokeColor=#ffffff;dashed=0;verticalLabelPosition=bottom;verticalAlign=top;align=center;html=1;fontSize=12;fontStyle=0;aspect=fixed;shape=mxgraph.aws4.resourceIcon;resIcon=mxgraph.aws4.dynamodb;" parent="SLDHy1DiMdNnZ1jH-4uN-1" vertex="1">
          <mxGeometry x="612" y="516" width="50" height="50" as="geometry" />
        </mxCell>
        <mxCell id="YldkjUizYy74dHa_TeQw-2" value="" style="edgeStyle=orthogonalEdgeStyle;rounded=0;orthogonalLoop=1;jettySize=auto;html=1;flowAnimation=1;" parent="SLDHy1DiMdNnZ1jH-4uN-1" source="YldkjUizYy74dHa_TeQw-3" edge="1">
          <mxGeometry relative="1" as="geometry">
            <mxPoint x="978" y="410" as="targetPoint" />
            <Array as="points">
              <mxPoint x="948" y="410" />
              <mxPoint x="948" y="410" />
            </Array>
          </mxGeometry>
        </mxCell>
        <mxCell id="YldkjUizYy74dHa_TeQw-11" value="" style="edgeStyle=orthogonalEdgeStyle;rounded=0;orthogonalLoop=1;jettySize=auto;html=1;flowAnimation=1;" parent="SLDHy1DiMdNnZ1jH-4uN-1" edge="1">
          <mxGeometry relative="1" as="geometry">
            <mxPoint x="858" y="420" as="sourcePoint" />
            <mxPoint x="784" y="420" as="targetPoint" />
          </mxGeometry>
        </mxCell>
        <mxCell id="YldkjUizYy74dHa_TeQw-3" value="" style="sketch=0;points=[[0,0,0],[0.25,0,0],[0.5,0,0],[0.75,0,0],[1,0,0],[0,1,0],[0.25,1,0],[0.5,1,0],[0.75,1,0],[1,1,0],[0,0.25,0],[0,0.5,0],[0,0.75,0],[1,0.25,0],[1,0.5,0],[1,0.75,0]];outlineConnect=0;fontColor=#232F3E;fillColor=#ED7100;strokeColor=#ffffff;dashed=0;verticalLabelPosition=bottom;verticalAlign=top;align=center;html=1;fontSize=12;fontStyle=0;aspect=fixed;shape=mxgraph.aws4.resourceIcon;resIcon=mxgraph.aws4.lambda;" parent="SLDHy1DiMdNnZ1jH-4uN-1" vertex="1">
          <mxGeometry x="858" y="388" width="50" height="50" as="geometry" />
        </mxCell>
        <mxCell id="YldkjUizYy74dHa_TeQw-4" value="" style="edgeStyle=orthogonalEdgeStyle;rounded=0;orthogonalLoop=1;jettySize=auto;html=1;flowAnimation=1;" parent="SLDHy1DiMdNnZ1jH-4uN-1" target="YldkjUizYy74dHa_TeQw-3" edge="1">
          <mxGeometry relative="1" as="geometry">
            <mxPoint x="978" y="420" as="sourcePoint" />
            <Array as="points">
              <mxPoint x="948" y="420" />
              <mxPoint x="948" y="420" />
            </Array>
          </mxGeometry>
        </mxCell>
        <mxCell id="YldkjUizYy74dHa_TeQw-5" value="S3" style="sketch=0;points=[[0,0,0],[0.25,0,0],[0.5,0,0],[0.75,0,0],[1,0,0],[0,1,0],[0.25,1,0],[0.5,1,0],[0.75,1,0],[1,1,0],[0,0.25,0],[0,0.5,0],[0,0.75,0],[1,0.25,0],[1,0.5,0],[1,0.75,0]];outlineConnect=0;fontColor=#232F3E;fillColor=#7AA116;strokeColor=#ffffff;dashed=0;verticalLabelPosition=bottom;verticalAlign=top;align=center;html=1;fontSize=12;fontStyle=0;aspect=fixed;shape=mxgraph.aws4.resourceIcon;resIcon=mxgraph.aws4.s3;" parent="SLDHy1DiMdNnZ1jH-4uN-1" vertex="1">
          <mxGeometry x="978" y="388" width="50" height="50" as="geometry" />
        </mxCell>
        <mxCell id="YldkjUizYy74dHa_TeQw-14" style="edgeStyle=orthogonalEdgeStyle;rounded=0;orthogonalLoop=1;jettySize=auto;html=1;flowAnimation=1;" parent="SLDHy1DiMdNnZ1jH-4uN-1" edge="1">
          <mxGeometry relative="1" as="geometry">
            <mxPoint x="889" y="437" as="sourcePoint" />
            <mxPoint x="665" y="545" as="targetPoint" />
            <Array as="points">
              <mxPoint x="889" y="545" />
            </Array>
          </mxGeometry>
        </mxCell>
        <mxCell id="YldkjUizYy74dHa_TeQw-15" style="edgeStyle=orthogonalEdgeStyle;rounded=0;orthogonalLoop=1;jettySize=auto;html=1;entryX=0.5;entryY=1;entryDx=0;entryDy=0;entryPerimeter=0;flowAnimation=1;" parent="SLDHy1DiMdNnZ1jH-4uN-1" edge="1">
          <mxGeometry relative="1" as="geometry">
            <mxPoint x="661" y="535" as="sourcePoint" />
            <mxPoint x="880" y="438" as="targetPoint" />
          </mxGeometry>
        </mxCell>
      </root>
    </mxGraphModel>
  </diagram>
</mxfile>
